# Blender v2.80 (sub 75) OBJ File: 'test.blend'
# www.blender.org
mtllib test.mtl
o Plane
v -1.000000 -1.000000 -0.000000
v 1.000000 -1.000000 -0.000000
v -1.000000 1.000000 0.000000
v 1.000000 1.000000 0.000000
v -0.202393 0.721218 0.000000
v -0.202393 0.316432 -0.000000
v 0.202393 0.316432 -0.000000
v 0.202393 0.721218 0.000000
vt 0.448475 0.782472
vt 0.199240 0.996073
vt 0.199240 0.371115
vt 0.574962 0.782472
vt 0.824198 0.996073
vt 0.574962 0.908959
vt 0.448475 0.908959
vt 0.824198 0.371115
vn 0.0000 -0.0000 1.0000
usemtl textured
s off
f 6/1/1 3/2/1 1/3/1
f 7/4/1 4/5/1 8/6/1
f 8/6/1 3/2/1 5/7/1
f 6/1/1 5/7/1 3/2/1
f 7/4/1 2/8/1 4/5/1
f 8/6/1 4/5/1 3/2/1
usemtl textured_transparent
f 6/1/1 8/6/1 5/7/1
f 6/1/1 7/4/1 8/6/1
usemtl no_shadow
f 6/1/1 2/8/1 7/4/1
f 6/1/1 1/3/1 2/8/1
